<?xml version="1.0" encoding="UTF-8" standalone="no"?>
<svg
   width="48"
   height="48"
   version="1.1"
   id="svg2379"
   sodipodi:docname="kopete.svg"
   inkscape:version="1.2.2 (1:1.2.2+202212051552+b0a8486541)"
   xmlns:inkscape="http://www.inkscape.org/namespaces/inkscape"
   xmlns:sodipodi="http://sodipodi.sourceforge.net/DTD/sodipodi-0.dtd"
   xmlns:xlink="http://www.w3.org/1999/xlink"
   xmlns="http://www.w3.org/2000/svg"
   xmlns:svg="http://www.w3.org/2000/svg">
  <sodipodi:namedview
     id="namedview2381"
     pagecolor="#ffffff"
     bordercolor="#666666"
     borderopacity="1.0"
     inkscape:showpageshadow="2"
     inkscape:pageopacity="0.0"
     inkscape:pagecheckerboard="0"
     inkscape:deskcolor="#d1d1d1"
     showgrid="false"
     inkscape:zoom="17.1875"
     inkscape:cx="18.181818"
     inkscape:cy="23.970909"
     inkscape:window-width="1920"
     inkscape:window-height="1051"
     inkscape:window-x="1920"
     inkscape:window-y="0"
     inkscape:window-maximized="1"
     inkscape:current-layer="svg2379" />
  <defs
     id="defs2367">
    <linearGradient
       id="a"
       y1="20.985"
       x1="23.719"
       y2="30.733"
       x2="33.466"
       gradientUnits="userSpaceOnUse"
       gradientTransform="matrix(0.99522,0.0977,-0.0977,0.99522,345.61,496.52)">
      <stop
         id="stop2352" />
      <stop
         offset="1"
         stop-opacity="0"
         id="stop2354" />
    </linearGradient>
    <linearGradient
       id="b"
       y1="44"
       y2="4"
       gradientUnits="userSpaceOnUse"
       x2="0"
       gradientTransform="matrix(-1 0 0 1 432.57 499.8)">
      <stop
         stop-color="#2f74c8"
         id="stop2357"
         offset="0"
         style="stop-color:#162d50;stop-opacity:1;" />
      <stop
         offset="1"
         stop-color="#4699d7"
         id="stop2359"
         style="stop-color:#356cbf;stop-opacity:1;" />
    </linearGradient>
    <linearGradient
       id="c"
       y1="522.8"
       y2="492.8"
       x2="0"
       gradientUnits="userSpaceOnUse"
       gradientTransform="translate(31.064603,10)">
      <stop
         stop-color="#7cbaf8"
         id="stop2362" />
      <stop
         offset="1"
         stop-color="#f4fcff"
         id="stop2364" />
    </linearGradient>
    <linearGradient
       inkscape:collect="always"
       xlink:href="#c"
       id="linearGradient3447"
       x1="419.25339"
       y1="524.04877"
       x2="419.25339"
       y2="506.58966"
       gradientUnits="userSpaceOnUse"
       gradientTransform="translate(-0.621786,3.11309)" />
    <linearGradient
       inkscape:collect="always"
       xlink:href="#a"
       id="linearGradient3587"
       x1="648.69159"
       y1="94.142242"
       x2="668.43054"
       y2="94.463402"
       gradientUnits="userSpaceOnUse" />
  </defs>
  <g
     transform="translate(-384.57-499.8)"
     id="g2377">
    <path
       fill="url(#b)"
       fill-rule="evenodd"
       d="m428.57 503.8v30h-20l-11 10v-10h-9v-30z"
       id="path2369" />
    <path
       id="path4680-8-4-2-6-9-1-9-9"
       style="display:inline;fill:url(#linearGradient3447);fill-opacity:1;fill-rule:nonzero;stroke:none;stroke-width:0.0282409"
       d="m 402.83711,518.34414 c 0,-0.86261 -0.718,-1.56187 -1.60374,-1.56187 -0.88576,2e-5 -1.60376,0.69928 -1.60376,1.56189 0,0.86261 0.718,1.56188 1.60374,1.56188 0.88574,0 1.60376,-0.69928 1.60376,-1.5619 z m 3.76263,-3.49085 c 0,-0.95846 -0.79779,-1.73541 -1.78194,-1.73541 -0.98417,2e-5 -1.78196,0.77697 -1.78196,1.73543 0,0.95846 0.79779,1.73542 1.78194,1.73542 0.98415,0 1.78197,-0.77699 1.78196,-1.73544 z m 0.13704,7.11517 c 0,-0.95846 -0.79779,-1.73542 -1.78194,-1.73542 -0.98417,2e-5 -1.78195,0.77698 -1.78195,1.73544 0,0.95846 0.79778,1.73541 1.78193,1.73541 0.98415,0 1.78197,-0.77698 1.78196,-1.73543 z m 3.97844,3.68174 c -10e-6,-1.06495 -0.88644,-1.92824 -1.97994,-1.92824 -1.09352,2e-5 -1.97995,0.86331 -1.97995,1.92826 0,1.06497 0.88643,1.92824 1.97993,1.92824 1.0935,0 1.97996,-0.86331 1.97996,-1.92826 z m -0.05,-14.56341 c 0,-1.06496 -0.88643,-1.92825 -1.97993,-1.92825 -1.09353,3e-5 -1.97996,0.86331 -1.97996,1.92826 0,1.06495 0.88643,1.92825 1.97994,1.92825 1.0935,0 1.97995,-0.86332 1.97995,-1.92826 z m -0.146,7.39082 c 0,-1.06495 -0.88644,-1.92825 -1.97994,-1.92825 -1.09352,2e-5 -1.97994,0.86332 -1.97994,1.92827 0,1.06496 0.88642,1.92823 1.97992,1.92823 1.0935,0 1.97996,-0.8633 1.97996,-1.92825 z m 4.08746,-3.76651 c 0,-1.18327 -0.98493,-2.14249 -2.19992,-2.14249 -1.21503,2e-5 -2.19995,0.95923 -2.19995,2.14252 0,1.18327 0.98492,2.14249 2.19992,2.14249 1.215,-10e-6 2.19995,-0.95925 2.19995,-2.14252 z m -0.087,7.44825 c 0,-1.18328 -0.98493,-2.14248 -2.19993,-2.14248 -1.21502,2e-5 -2.19994,0.95922 -2.19994,2.14251 0,1.18328 0.98492,2.14248 2.19992,2.14248 1.215,0 2.19996,-0.95923 2.19995,-2.14251 z m 4.11191,-3.7665 c 0,-1.31476 -1.09436,-2.38056 -2.44436,-2.38056 -1.35003,4e-5 -2.44439,1.06582 -2.44439,2.38058 0,1.31475 1.09436,2.38055 2.44436,2.38055 1.35,0 2.44439,-1.06583 2.44439,-2.38057 z" />
    <g
       id="g3600">
      <path
         id="rect3578"
         style="opacity:0.2;fill:url(#linearGradient3587);fill-opacity:1;stroke-width:3.77953;stroke-linecap:round;stroke-linejoin:bevel"
         inkscape:transform-center-x="-10.545544"
         inkscape:transform-center-y="10.183813"
         d="m 648.90687,81.783544 0.001,0.01521 c 0.55556,-0.04479 1.12051,0.145321 1.53154,0.570949 0.73977,0.766049 0.7011,2.002834 -0.0855,2.762446 -0.40022,0.386495 -0.91698,0.57391 -1.42567,0.564927 l 0.001,0.08014 19.72907,0.934081 -9.02258,0.320477 c 0.46817,0.05602 0.91743,0.263974 1.26677,0.625724 0.82198,0.851168 0.78038,2.224934 -0.0936,3.068948 -0.30963,0.299004 -0.68238,0.48937 -1.07086,0.575263 l 8.58997,0.406813 -19.17554,0.907154 c 0.25745,0.07053 0.49983,0.208301 0.69725,0.412738 0.59923,0.620513 0.56773,1.62117 -0.0694,2.236459 -0.20278,0.195828 -0.44287,0.329074 -0.69485,0.399496 l 4.34191,0.205607 c -0.30309,-0.07422 -0.58825,-0.229579 -0.8192,-0.468736 -0.66581,-0.689454 -0.63142,-1.801286 0.0765,-2.484965 0.70794,-0.683651 1.82032,-0.679222 2.48612,0.01023 0.66581,0.68944 0.63278,1.80272 -0.0752,2.486371 -0.28632,0.2765 -0.63911,0.437908 -1.00168,0.489449 l 4.82497,0.22785 c -0.43471,-0.04356 -0.85293,-0.233744 -1.17659,-0.5689 -0.73978,-0.766056 -0.7011,-2.002805 0.0855,-2.762445 0.78659,-0.759612 2.02255,-0.75376 2.76234,0.01229 0.73978,0.766056 0.70386,2.002881 -0.0827,2.762494 -0.39329,0.379806 -0.90068,0.567471 -1.40081,0.565361 l 8.31769,1.212785 0.002,-5.787529 -0.0857,0.004 -0.002,-4.101043 0.32433,0.01533 -0.17973,-6.481331 -7.86617,0.379421 c 0.59794,0.01653 1.18591,0.252402 1.62855,0.71077 0.9133,0.945739 0.86464,2.472106 -0.10646,3.409899 -0.97111,0.937793 -2.49823,0.933178 -3.41154,-0.01257 -0.91331,-0.945754 -0.86599,-2.473462 0.10511,-3.411304 0.41494,-0.40071 0.93131,-0.626852 1.45812,-0.683152 z m 3.81426,0.443648 c 0.87398,-0.844006 2.24842,-0.840409 3.07039,0.01076 0.82197,0.851169 0.77897,2.226285 -0.095,3.070305 -0.874,0.844014 -2.24838,0.837648 -3.07035,-0.01352 -0.82199,-0.851182 -0.77903,-2.223494 0.095,-3.067543 z m -3.56702,5.176944 c 0.36107,0.05383 0.70566,0.219009 0.97614,0.4991 0.66581,0.68944 0.63278,1.802719 -0.0752,2.48637 -0.20686,0.199759 -0.44869,0.339136 -0.70352,0.421445 l 3.98308,0.188295 c -0.26305,-0.09521 -0.5081,-0.247801 -0.71436,-0.461381 -0.73977,-0.766056 -0.70249,-2.001448 0.0841,-2.761089 0.30006,-0.289768 0.66532,-0.468281 1.04392,-0.535676 z m 5.15261,-0.18358 c 0.42927,0.04641 0.84155,0.236012 1.16143,0.567253 0.73978,0.766057 0.70109,2.002834 -0.0855,2.762446 -0.26237,0.253368 -0.57499,0.418898 -0.90245,0.502232 l 4.11278,0.196083 c -0.31539,-0.103369 -0.6089,-0.281892 -0.85395,-0.535643 -0.82198,-0.851183 -0.78038,-2.224906 0.0936,-3.068948 0.32298,-0.311901 0.71422,-0.508185 1.12081,-0.588204 z"
         transform="rotate(44.000284)"
         sodipodi:nodetypes="ccsscccccsccccscccccsccsccscccccccccssccccscscccscccccccsscccccc" />
    </g>
  </g>
</svg>
