/* XPM */
static char *siduction_irc[] = {
/* columns rows colors chars-per-pixel */
"32 32 199 2 ",
"   c #223B62",
".  c #25406B",
"X  c #25416B",
"o  c #2D4568",
"O  c #284570",
"+  c #294672",
"@  c #324B71",
"#  c #304F7F",
"$  c #465975",
"%  c #465C7E",
"&  c #4E5F79",
"*  c #53637C",
"=  c #6D6D6D",
"-  c #6F6F6F",
";  c gray44",
":  c #717171",
">  c gray45",
",  c #747474",
"<  c gray46",
"1  c #767676",
"2  c #777777",
"3  c gray47",
"4  c #797979",
"5  c gray48",
"6  c #7B7B7B",
"7  c #7C7C7C",
"8  c #7E7E7E",
"9  c #FF6600",
"0  c #FF6702",
"q  c #FF6804",
"w  c #FE6C0B",
"e  c #FE6F10",
"r  c #FE7215",
"t  c #FD7A22",
"y  c #FC7C27",
"u  c #FD812F",
"i  c #FD8637",
"p  c #FB883C",
"a  c #FA8B41",
"s  c #FB9048",
"d  c #FA9450",
"f  c #F79B5E",
"g  c #FB9D5E",
"h  c #FA9E61",
"j  c #F7A56F",
"k  c #FAA46B",
"l  c #F8A46C",
"z  c #F8A66F",
"x  c #FAA871",
"c  c #3A5C90",
"v  c #3B5E93",
"b  c #3C5F94",
"n  c #3D6095",
"m  c #596981",
"M  c #5C6D87",
"N  c #50698F",
"B  c #4E6992",
"V  c #40659C",
"C  c #4A6A9B",
"Z  c #637289",
"A  c #6A788E",
"S  c #6B798E",
"D  c #657B9B",
"F  c #727F94",
"G  c #4469A0",
"H  c #466CA6",
"J  c #4D6FA1",
"K  c #4970AB",
"L  c #4E74AD",
"P  c #5176AD",
"I  c #4F76B2",
"U  c #4E77B5",
"Y  c #587DB6",
"T  c #728197",
"R  c #7B879A",
"E  c #7D8A9C",
"W  c #6E85A9",
"Q  c #838383",
"!  c gray52",
"~  c #888888",
"^  c gray55",
"/  c #8D8D8D",
"(  c #8E8E8E",
")  c gray56",
"_  c #808C9E",
"`  c #818D9E",
"'  c #909090",
"]  c gray57",
"[  c #929292",
"{  c #939393",
"}  c #9A9A9A",
"|  c #8691A3",
" . c #8995A7",
".. c #8E98A7",
"X. c #8394AF",
"o. c #8599B7",
"O. c #9DA6B3",
"+. c #9AA7BB",
"@. c #9AA8BD",
"#. c gray64",
"$. c #A7A7A7",
"%. c gray66",
"&. c #AEAEAE",
"*. c #A0A9B6",
"=. c #A3ABB8",
"-. c #ABB2BD",
";. c #ACB3BD",
":. c #B2B2B2",
">. c gray70",
",. c #B9B9B9",
"<. c #F6B082",
"1. c #F4B185",
"2. c #FAB587",
"3. c #F4B991",
"4. c #F4BC96",
"5. c #F2C9AD",
"6. c #F6CEB3",
"7. c #F2CDB4",
"8. c #ABB4C1",
"9. c #AEB6C2",
"0. c #B7BDC6",
"q. c #B4BCC8",
"w. c #B9C0CA",
"e. c #BDC3CB",
"r. c #BEC4CC",
"t. c #CACACA",
"y. c #CBCBCB",
"u. c #CDCDCD",
"i. c #CECECE",
"p. c gray81",
"a. c #C3C8D0",
"s. c #CCD0D6",
"d. c #CED2D7",
"f. c #CFD3D9",
"g. c #D0D0D0",
"h. c #D2D2D2",
"j. c #D7D7D7",
"k. c #D0D3D8",
"l. c #D4D7DB",
"z. c #D6D9DC",
"x. c #D6D9DF",
"c. c #D8D8D8",
"v. c #DADADA",
"b. c #D9DBDE",
"n. c #D8DBDF",
"m. c #D9DCDF",
"M. c #F2D6C3",
"N. c #F2D8C7",
"B. c #F7DAC7",
"V. c #F0DACB",
"C. c #EFE2DA",
"Z. c #F2E1D6",
"A. c #F1E2D8",
"S. c #F3E3D9",
"D. c #D9DCE0",
"F. c #DBDEE1",
"G. c #DEE0E2",
"H. c gray88",
"J. c #E1E1E1",
"K. c #E2E2E2",
"L. c gray89",
"P. c #E0E2E4",
"I. c #E1E3E7",
"U. c #E2E4E6",
"Y. c #E2E4E7",
"T. c #E4E4E4",
"R. c #E4E5E7",
"E. c #E7E7E7",
"W. c #E4E6E8",
"Q. c #E9E9E9",
"!. c #E8E9EA",
"~. c #EAEAEA",
"^. c #EAEAEB",
"/. c gray92",
"(. c #EEECEA",
"). c #EAEBEC",
"_. c #ECECEC",
"`. c gray93",
"'. c #EDEDEE",
"]. c #EEEEEE",
"[. c #EFEFEF",
"{. c #F3EBE5",
"}. c #F5EBE4",
"|. c #F6EDE7",
" X c #F2EDE9",
".X c #F1EFEE",
"XX c #F5F1EE",
"oX c #EFF0F0",
"OX c gray94",
"+X c #F1F0F0",
"@X c #F1F1F1",
"#X c gray95",
"$X c #F3F3F3",
"%X c #F4F4F4",
"&X c gray96",
"*X c #F6F6F6",
"=X c gray97",
"-X c #F8F8F8",
";X c None",
/* pixels */
";X;X;X;X;X;X;X;X;X;X;X;X;X;X;X6 3 6 6 1 4 4 4 4 4 4 6 3 6 6 3 ;X",
";X;X;X;X;X;X;X;X;X;X;X;X;X;X1 ~ u.u.g.u.p.p.p.p.p.p.p.p.u.y.[ 1 ",
";X;X;X;X;X;X;X;X;X;X;X;X;X;X6 y.-X-X&X-X=X=Xx.L.%X=X%X&X%X#Xc.6 ",
";X;X;X;X;X;X;X;X;X;X;X;X;X;X1 c.&X&X&X&X%Xr.G J ).oXoXoX`.`.K.3 ",
";X;X;X;X;X;X;X;X;X;X;X;X;X;X3 c.&X&X&X&X%Xe.. @ !.%X#X`.oX`.K.6 ",
";X;X;X;X;X;X;X;X;X;X;X;X;X;X3 c.=X&X&Xa.o.F.s.n.D P 0.OX`.oXK.3 ",
";X;X;X;X;X;X;X;X;X;X;X;X;X;X1 c.&X&X&XM H  .#XF.+ V T `.`.`.H.6 ",
";X;X;X;X;X;X;X;X;X;X;X;X;X;X6 c.=XY.n.a.F n.q.f._ & =.W +.`.H.3 ",
";X;X6 1 6 1 6 3 3 6 1 6 6 1 3 &.`.N L R.%XO.K C `.oX% U n k.L.6 ",
";X6 [ [ [ [ [ [ [ [ [ [ [ [ [ Q ) | Z `.#Xq.  $ ).R.M   o F.K.3 ",
"6 y.#X#X#X#X#X#X#X#X#X#X#X#X#X`.8 c.#X*.Y 8.F.L.B I 9.;.l.!.H.6 ",
"1 K.&X&X&X&X&X|.B.}.&X#X#X#X#XT.[ g.#XR # ` oXf.O c E /./.).H.3 ",
"6 K.&X&X&XXXg q 9 9 s S.#X#XoXL.[ g.#X!.0.T.X.@...S n./././.H.6 ",
"6 K.&X&X&X2.9 r k u 9 p #XoX.XK.[ u.OX#XoX-.v b n.`./././.!.H.3 ",
"1 K.#X&X&Xi 9 6.#X{.w 9 A.`.#XK.[ p.OX`.`.L.* A /././.!.Q.Q.K.3 ",
"6 K.&X&X&Xx h  X#X.Xe 9 N.`.`.K.[ g.%X&X%X#X#X#X#X.X!..X.X#Xc.3 ",
"6 K.&X#X#X#X#X#X#Xz 9 t (.`.(.K.[ #.>.>.>.>.>.>.>.!./.E.>.>.^ ; ",
"6 K.&X&X%X#X#X.Xl 9 t V.`.`.(.K.[ , ; ; ; ; - - > } !.K.3 ; - ;X",
"1 K.#X#X#X#X#XA.9 y S.`.`.`./.J.[ ;X;X;X;X;X;X;X;X1 %.T.6 ;X;X;X",
"6 K.#X#X#X.X#XM.d 4.`.`.!.`./.J.[ ;X;X;X;X;X;X;X;X;X3 ) 6 ;X;X;X",
"3 K.#X`.`.#X`.7.z 3.)._././.Q.J.[ ;X;X;X;X;X;X;X;X;X;X1 3 3 ;X;X",
"6 K.#X#X#XoX`.1.9 a `.).!./.Q.J.[ ;X;X;X;X;X;X;X;X;X;X;X;X1 1 ;X",
"6 K.`..X.X`.`.5.f 1.!.!.Q.Q.!.K.[ ;X;X;X;X;X;X;X;X;X;X;X;X;X;X;X",
"1 K.`.oX`.`.`.`./.(./.!.Q.!.!.K.) ;X;X;X;X;X;X;X;X;X;X;X;X;X;X;X",
"1 ,.`.`.`.`.`.`.`.`.`.`.`.`.`.K.8 ;X;X;X;X;X;X;X;X;X;X;X;X;X;X;X",
";X1 3 1 T.`.$.6 1 6 1 6 6 1 1 6 ; ;X;X;X;X;X;X;X;X;X;X;X;X;X;X;X",
";X;X;X6 #Xj.1 ;X;X;X;X;X;X;X;X;X;X;X;X;X;X;X;X;X;X;X;X;X;X;X;X;X",
";X;X;X! y.6 ;X;X;X;X;X;X;X;X;X;X;X;X;X;X;X;X;X;X;X;X;X;X;X;X;X;X",
";X;X1 1 6 ;X;X;X;X;X;X;X;X;X;X;X;X;X;X;X;X;X;X;X;X;X;X;X;X;X;X;X",
";X;X6 6 ;X;X;X;X;X;X;X;X;X;X;X;X;X;X;X;X;X;X;X;X;X;X;X;X;X;X;X;X",
";X6 ;X;X;X;X;X;X;X;X;X;X;X;X;X;X;X;X;X;X;X;X;X;X;X;X;X;X;X;X;X;X",
";X;X;X;X;X;X;X;X;X;X;X;X;X;X;X;X;X;X;X;X;X;X;X;X;X;X;X;X;X;X;X;X"
};
