/* XPM */
static char *siduction_irc_16[] = {
/* columns rows colors chars-per-pixel */
"16 16 102 2 ",
"   c gray47",
".  c #797979",
"X  c gray48",
"o  c gray49",
"O  c gray50",
"+  c #FF6905",
"@  c #FE771D",
"#  c #FE781E",
"$  c #F98F49",
"%  c #FA9049",
"&  c #FA924C",
"*  c #FA9B5C",
"=  c #F8A873",
"-  c #F9AD7A",
";  c #49648B",
":  c #526888",
">  c #5171A1",
",  c #5A7EB6",
"<  c #7E96BA",
"1  c #808080",
"2  c gray54",
"3  c gray55",
"4  c gray57",
"5  c #939393",
"6  c gray58",
"7  c #959595",
"8  c #989898",
"9  c #838FA0",
"0  c #8591A5",
"q  c #8592A5",
"w  c #9BA5B3",
"e  c #A4A4A4",
"r  c #A5A5A5",
"t  c gray65",
"y  c #A9A9A9",
"u  c gray67",
"i  c #ACACAC",
"p  c gray68",
"a  c #AFAFAF",
"s  c #A4AAB2",
"d  c #A4ADB8",
"f  c #AEB5BF",
"g  c gray69",
"h  c #B1B1B1",
"j  c #B2B2B2",
"k  c gray70",
"l  c #B4B4B4",
"z  c gray71",
"x  c #F8C6A4",
"c  c #F0CDB5",
"v  c #82A1CF",
"b  c #98AAC4",
"n  c #A4AFC1",
"m  c #B4BAC3",
"M  c #BDC2CA",
"N  c #C1C1C1",
"B  c gray77",
"V  c #C2C8CF",
"C  c #C4C8D0",
"Z  c #C8CCD3",
"A  c #D1D5DA",
"S  c #D6D8DC",
"D  c #D9DBDF",
"F  c gray87",
"G  c #F1D5C3",
"H  c #EEE5DF",
"J  c #F6E3D7",
"K  c #F1E6DF",
"L  c #DBDDE0",
"P  c gray88",
"I  c #E2E2E2",
"U  c gray89",
"Y  c #E3E5E7",
"T  c #E4E4E4",
"R  c gray90",
"E  c #E6E6E7",
"W  c #E7E8E8",
"Q  c #E9E9E9",
"!  c #E9E9EB",
"~  c #EAEAEA",
"^  c gray92",
"/  c #EDEAE8",
"(  c #EAEBED",
")  c #EBECED",
"_  c #ECECEC",
"`  c gray93",
"'  c #EEEEEE",
"]  c #EEEFEF",
"[  c #EFEFEF",
"{  c #F0E8E3",
"}  c #F3ECE8",
"|  c #F2EEEC",
" . c #F2F0EF",
".. c gray94",
"X. c #F1F1F1",
"o. c gray95",
"O. c #F3F3F3",
"+. c #F3F3F4",
"@. c #F4F4F4",
"#. c gray96",
"$. c #F6F6F6",
"%. c None",
/* pixels */
"%.%.%.%.%.%.%.2 r y y y y y t 3 ",
"%.%.%.%.%.%.%.u #.#.) b X.X.X.k ",
"%.%.%.%.%.%.%.i #.( Z 9 n U ` k ",
"%.%.%.%.%.%.%.k #.V q L : d D k ",
"%.6 6 6 6 6 6 6 s w A > ..; q k ",
"i X.X. .} X.X.T y C < ( , M W k ",
"k #.J @ # * X.T i X.S v m T ( k ",
"k #.x - | + { U i X...f [ ( ` i ",
"k #.X.X.= & X.P 6 8 8 8 i F 5 1 ",
"k #.X.K % / ` P 5 %.%.%.%.r O %.",
"k X.X.G $ ` Q P 5 %.%.%.%.%.  %.",
"k ` ` H c Q Q F 5 %.%.%.%.%.%.%.",
"3 z T N z z k k   %.%.%.%.%.%.%.",
"%.O B %.%.%.%.%.%.%.%.%.%.%.%.%.",
"%.  %.%.%.%.%.%.%.%.%.%.%.%.%.%.",
"%.%.%.%.%.%.%.%.%.%.%.%.%.%.%.%."
};
