/* XPM */
static char *siduction_irc_16[] = {
/* columns rows colors chars-per-pixel */
"16 16 135 2 ",
"   c black",
".  c #020202",
"X  c gray1",
"o  c #040101",
"O  c #060101",
"+  c #040404",
"@  c gray2",
"#  c #060606",
"$  c #070707",
"%  c #0B0B0B",
"&  c #0E0E0E",
"*  c #100103",
"=  c #100809",
"-  c #101010",
";  c #111111",
":  c gray7",
">  c gray8",
",  c #181818",
"<  c gray10",
"1  c #1B1B1B",
"2  c #1E1B1B",
"3  c gray11",
"4  c #1D1D1D",
"5  c #222222",
"6  c gray14",
"7  c #252525",
"8  c gray15",
"9  c #282828",
"0  c gray16",
"q  c #2A2A2A",
"w  c gray17",
"e  c #2C2C2C",
"r  c #2D2D2D",
"t  c #382324",
"y  c #322D2D",
"u  c #353535",
"i  c gray21",
"p  c gray23",
"a  c gray24",
"s  c #3F3D3D",
"d  c #3E3E3E",
"f  c #440000",
"g  c #4A0909",
"h  c #4B080E",
"j  c #4F0A0C",
"k  c #5F0000",
"l  c #56090D",
"z  c #5A0A0B",
"x  c #5C0F10",
"c  c #630D0E",
"v  c #770000",
"b  c #660D11",
"n  c #6A151A",
"m  c #6A1C1C",
"M  c #6C1E22",
"N  c #781E22",
"B  c #5F2225",
"V  c #493031",
"C  c #4F3638",
"Z  c #563335",
"A  c #5D3536",
"S  c #603133",
"D  c #713333",
"F  c #414141",
"G  c gray26",
"H  c #444444",
"J  c #464646",
"K  c gray28",
"L  c #574545",
"P  c #5C4C4C",
"I  c #555555",
"U  c #565656",
"Y  c #585858",
"T  c gray35",
"R  c #5A5A5A",
"E  c #7E4243",
"W  c #755353",
"Q  c #606060",
"!  c gray38",
"~  c gray39",
"^  c #646464",
"/  c gray40",
"(  c #6C6161",
")  c #6D6D6D",
"_  c #776161",
"`  c #777777",
"'  c #7F7A7A",
"]  c #7C7C7C",
"[  c gray50",
"{  c #951717",
"}  c #863233",
"|  c #B14343",
" . c #816161",
".. c #866161",
"X. c #866062",
"o. c #8C6565",
"O. c #876F6F",
"+. c #946C6C",
"@. c #987676",
"#. c #9A7E7E",
"$. c #A26C6C",
"%. c #BE6D6D",
"&. c #B47979",
"*. c #BE7979",
"=. c #838383",
"-. c #868686",
";. c #8A8989",
":. c #948A8A",
">. c gray58",
",. c #9A9999",
"<. c #9B9B9B",
"1. c gray62",
"2. c #9F9F9F",
"3. c #A88181",
"4. c #A49898",
"5. c #A2A2A2",
"6. c gray70",
"7. c #B5B4B4",
"8. c #B9B9B9",
"9. c #BCBCBC",
"0. c #D9CECE",
"q. c gray82",
"w. c #D5D4D4",
"e. c #E2E2E2",
"r. c gray89",
"t. c gray90",
"y. c gray91",
"u. c #ECECEC",
"i. c #EDECEC",
"p. c #F3F3F3",
"a. c #FBFBFB",
"s. c gray99",
"d. c #FDFDFD",
"f. c gray100",
"g. c None",
/* pixels */
"g.g.g.g.g.g.7 e 7 g.g.g.g.g.g.g.",
"g.g.g.q e q 3 : 3 u d F g.g.g.g.",
"g.g.q &               : d g.g.g.",
"g.3                       e g.g.",
"g.$           1.H         6 ] g.",
"$ H >.) %     q i.r.H     q.-.g.",
"7 f.f.f.u.U     $ 8.a.!   t.$ g.",
"6 f.f.u.a.f.9.d     ] 5.  [   U ",
"$ p.f.D m 3.0.f.w.[ p < : y ' 6.",
"g.,.r.L f k v { | %.*.&.$.+.4.<.",
"g.V 7.1.! ( _  ...o.@.#.O.P / g.",
"g.g.W :.;.=.Q ^ U u , & H [ g.g.",
"g.g.g E ..C * O . 3 C T T F g.g.",
"g.g.g.g.N } M B A A C t = > g.g.",
"g.g.g.g.g.g.b c x h g.j z l n g.",
"g.g.g.g.g.g.g.g.g.g.g.g.g.g.g.g."
};
