/* XPM */
static char *siduction_irc[] = {
/* columns rows colors chars-per-pixel */
"32 32 148 2 ",
"   c #000000",
".  c #0B0202",
"X  c #0B0B0B",
"o  c #130303",
"O  c #1C0303",
"+  c #141313",
"@  c #1B1A1A",
"#  c #250406",
"$  c #2D0102",
"%  c #280808",
"&  c #350000",
"*  c #3C0000",
"=  c #3E070A",
"-  c #35090A",
";  c #3F0A0A",
":  c #340E10",
">  c #261111",
",  c #231F1F",
"<  c #252424",
"1  c #2E2426",
"2  c #2B2B2B",
"3  c #3A2727",
"4  c #353535",
"5  c #3A3636",
"6  c #3C3C3C",
"7  c #460000",
"8  c #4C0000",
"9  c #4C070B",
"0  c #41090B",
"q  c #4A090A",
"w  c #540202",
"e  c #5C0000",
"r  c #53070D",
"t  c #530B0D",
"y  c #5B0B0D",
"u  c #460D11",
"i  c #461C1C",
"p  c #4D1E1E",
"a  c #551114",
"s  c #600000",
"d  c #6A0000",
"f  c #660B0F",
"g  c #6C0A0F",
"h  c #730000",
"j  c #7D0000",
"k  c #6B0D12",
"l  c #750F13",
"z  c #641416",
"x  c #681014",
"c  c #681A1A",
"v  c #741213",
"b  c #7D1418",
"n  c #74181B",
"m  c #7D191B",
"M  c #452325",
"N  c #522B2D",
"B  c #5D2C2E",
"V  c #423D3D",
"C  c #4D3D3D",
"Z  c #563E3E",
"A  c #5B3E3F",
"S  c #6F2424",
"D  c #622C2E",
"F  c #692D2E",
"G  c #792527",
"H  c #762B2E",
"J  c #6F2E30",
"K  c #6C3335",
"L  c #753032",
"P  c #7C3939",
"I  c #5A3E40",
"U  c #434343",
"Y  c #4A4A4A",
"T  c #535252",
"R  c #5C5C5C",
"E  c #695656",
"W  c #745455",
"Q  c #7E5455",
"!  c #636363",
"~  c #686868",
"^  c #74696A",
"/  c #7E6A6B",
"(  c #747171",
")  c #7C7C7C",
"_  c #830000",
"`  c #8F0000",
"'  c #860E0E",
"]  c #85171B",
"[  c #821C1D",
"{  c #8B1F24",
"}  c #842426",
"|  c #8B2C2F",
" . c #862E30",
".. c #893437",
"X. c #AC2C2C",
"o. c #A63B3B",
"O. c #864246",
"+. c #8C4243",
"@. c #854B4B",
"#. c #835656",
"$. c #865759",
"%. c #8A5759",
"&. c #825D5D",
"*. c #876365",
"=. c #836B6B",
"-. c #886C6C",
";. c #916060",
":. c #906C6D",
">. c #837F7F",
",. c #8C7D7D",
"<. c #977979",
"1. c #9E7979",
"2. c #C86565",
"3. c #828282",
"4. c #8C8080",
"5. c #8B8B8B",
"6. c #958383",
"7. c #918C8C",
"8. c #949494",
"9. c #9D9C9C",
"0. c #A09596",
"q. c #B69494",
"w. c #A4A3A3",
"e. c #ABAAAA",
"r. c #B8A0A0",
"t. c #B4AAAA",
"y. c #B8AAAA",
"u. c #B6B5B5",
"i. c gray73",
"p. c #C99898",
"a. c #DD9797",
"s. c #C2B4B4",
"d. c #CCBEBE",
"f. c #C2C2C2",
"g. c #CDC4C4",
"h. c #C8C8C8",
"j. c #DCC9C9",
"k. c #D5D5D5",
"l. c #DFDADA",
"z. c #EBC2C2",
"x. c #E2E2E2",
"c. c #EFE5E5",
"v. c #ECECEC",
"b. c #F4E2E2",
"n. c #F5EDED",
"m. c #F2F2F2",
"M. c #FEFEFE",
"N. c None",
/* pixels */
"N.N.N.N.N.N.N.N.N.N.N.N.N.N.N.N.N.N.N.N.N.N.N.N.N.N.N.N.N.N.N.N.",
"N.N.N.N.N.N.N.N.N.N.    2 6 6 6 6 2 X   N.N.N.N.N.N.N.N.N.N.N.N.",
"N.N.N.N.N.N.N.N.@ T R T 6 2 < < 2 U ! ~ R 4   N.N.N.N.N.N.N.N.N.",
"N.N.N.N.N.N.@ T Y X                     + Y ~ 6 N.N.N.N.N.N.N.N.",
"N.N.N.N.N.6 6                                 6 T < N.N.N.N.N.N.",
"N.N.N.N.6 @                                     X Y 4 N.N.N.N.N.",
"N.N.N.4 +                                           6 6 N.N.N.N.",
"N.N.@ +                                               4 4 N.N.N.",
"N.N.@                       4                           4 N.N.N.",
"N.X                         u.M.u.2                   ) x.T N.N.",
"N.X     4 6 X                 3.M.M.k.6             + M.m.< N.N.",
"N.  6 c.M.M.M.u.6               5 m.M.M.h.+         R M.5.  < N.",
"N.< m.M.M.M.M.M.M.w.+             + k.M.M.v.2       h.M.+   + N.",
"  Y M.M.M.M.M.M.M.M.v.R               8.M.M.v.X     v.i.    X N.",
"  U M.M.M.M.M.M.M.M.M.M.f.U             Y m.M.4     M.2       N.",
"  2 M.M.M.M.m.u.c.M.M.M.M.M.f.Y           @ f.X   X 5.      2 x.",
"N.X M.M.M.M.1.e w &.l.M.M.M.M.M.x.3.<                     Y v.N.",
"N.  k.M.M.M.Q 8 s d _ o.p.c.M.M.M.M.M.x.9.! U < + + 5 ( f.t.9.N.",
"N.. 5.v.v.v.=.* 8 e d h _ ` X.2.a.z.b.n.n.n.n.n.c.j.q.#.p ,.x.N.",
"N.# 1 k.k.k.w.o $ * 7 w e d h j j _ _ ' ' [ m v e y K <.g.k.9.N.",
"N.N.# 7.d.i.f.! @ > % $ * * 7 8 w y c S P @.;.1.r.d.s.,.Y ~ N.N.",
"N.N.$ M e.e.e.e.e.e.e.e.e.e.e.y.y.y.y.t.y.y.t.6.E 3 o , 3.) N.N.",
"N.N.N.= W 0.8.8.8.8.8.8.8.8.8.8.8.8.5.( T 2 X     @ R 8.3.N.N.N.",
"N.N.N.N.t *.6.4.3.) ) ~ 2 U U 4 2 +           2 R ) ) ) 4 N.N.N.",
"N.N.N.N.N.z $.:.-./ ^ +                 X 4 R ~ ~ ~ ! < N.N.N.N.",
"N.N.N.N.N.N.k O.%.%.Q - # O . . . . < V T T T T T Y 6 5 N.N.N.N.",
"N.N.N.N.N.N.N.k } +.O.L t q 0 i N A A A A Z C V 2   + Y N.N.N.N.",
"N.N.N.N.N.N.N.N.N.v { |  .G H J F D B B B N i : O .   + Y N.N.N.",
"N.N.N.N.N.N.N.N.N.N.N.g v b ] [ m n z a u ; q y f f y t x ..K N.",
"N.N.N.N.N.N.N.N.N.N.N.N.N.N.N.N.N.N.N.N.N.N.N.N.N.r y y f 9 N.N.",
"N.N.N.N.N.N.N.N.N.N.N.N.N.N.N.N.N.N.N.N.N.N.N.N.N.N.N.N.N.N.N.N.",
"N.N.N.N.N.N.N.N.N.N.N.N.N.N.N.N.N.N.N.N.N.N.N.N.N.N.N.N.N.N.N.N."
};
